<?xml version="1.0" encoding="UTF-8" standalone="no"?>
<svg
   xmlns:dc="http://purl.org/dc/elements/1.1/"
   xmlns:cc="http://creativecommons.org/ns#"
   xmlns:rdf="http://www.w3.org/1999/02/22-rdf-syntax-ns#"
   xmlns:svg="http://www.w3.org/2000/svg"
   xmlns="http://www.w3.org/2000/svg"
   xmlns:sodipodi="http://sodipodi.sourceforge.net/DTD/sodipodi-0.dtd"
   xmlns:inkscape="http://www.inkscape.org/namespaces/inkscape"
   id="b759170a-51c3-4e2f-999d-77dec9fd6d11"
   data-name="Layer 1"
   width="1140.56"
   height="787.27"
   viewBox="0 0 1140.56 787.27"
   version="1.1"
   sodipodi:docname="log.svg"
   inkscape:version="1.0.2-2 (e86c870879, 2021-01-15)">
  <metadata
     id="metadata324">
    <rdf:RDF>
      <cc:Work
         rdf:about="">
        <dc:format>image/svg+xml</dc:format>
        <dc:type
           rdf:resource="http://purl.org/dc/dcmitype/StillImage" />
        <dc:title>maker launch</dc:title>
      </cc:Work>
    </rdf:RDF>
  </metadata>
  <sodipodi:namedview
     pagecolor="#ffffff"
     bordercolor="#666666"
     borderopacity="1"
     objecttolerance="10"
     gridtolerance="10"
     guidetolerance="10"
     inkscape:pageopacity="0"
     inkscape:pageshadow="2"
     inkscape:window-width="1827"
     inkscape:window-height="1051"
     id="namedview322"
     showgrid="false"
     showguides="false"
     inkscape:zoom="0.4375"
     inkscape:cx="451.08712"
     inkscape:cy="755.43761"
     inkscape:window-x="84"
     inkscape:window-y="-9"
     inkscape:window-maximized="1"
     inkscape:current-layer="b759170a-51c3-4e2f-999d-77dec9fd6d11"
     inkscape:document-rotation="0" />
  <defs
     id="defs9">
    <linearGradient
       id="c518dc33-18b9-48bc-b516-0f83ad79191e"
       x1="852.39"
       y1="835.88"
       x2="852.39"
       y2="338.33"
       gradientUnits="userSpaceOnUse">
      <stop
         offset="0"
         stop-color="gray"
         stop-opacity="0.25"
         id="stop2" />
      <stop
         offset="0.54"
         stop-color="gray"
         stop-opacity="0.12"
         id="stop4" />
      <stop
         offset="1"
         stop-color="gray"
         stop-opacity="0.1"
         id="stop6" />
    </linearGradient>
  </defs>
  <title
     id="title11">maker launch</title>
  <ellipse
     cx="789.9"
     cy="749.54"
     rx="269.99"
     ry="37.73"
     fill="#30374e"
     id="ellipse15" />
  <path
     d="m 269.56571,195.30266 c -1.02958,0.0259 -2.09219,0.0505 -3.22088,0.0731 0,0 -0.55057,-0.0235 -1.57465,-0.0677 -9.00194,-0.39688 -53.32891,-2.48983 -42.52108,-4.82511 11.99708,-2.59566 14.72243,-4.41439 14.72243,-4.41439 h 4.91666 c 0,0 -2.72535,1.81934 -14.74997,4.41499 -10.76378,2.32446 33.13374,4.40959 42.42749,4.81909 z"
     fill="#ffffff"
     opacity="0.2"
     id="path163"
     style="stroke-width:0.128662" />
  <path
     d="M975.79,648.3c5.74,6.63,34.4,15.48,34.4,15.48s-4.64-29.63-10.38-36.27a15.88,15.88,0,0,0-24,20.79Z"
     transform="translate(-29.72 -56.36)"
     fill="#2271ff"
     id="path195" />
  <path
     d="M965.84,711.93c4.53,7.51,31.28,21.07,31.28,21.07s.44-30-4.09-37.5a15.88,15.88,0,1,0-27.19,16.43Z"
     transform="translate(-29.72 -56.36)"
     fill="#2271ff"
     id="path197" />
  <path
     d="M1023.69,760.84c-8.51,2.14-37.05-7.06-37.05-7.06s20.79-21.61,29.3-23.74a15.88,15.88,0,1,1,7.75,30.8Z"
     transform="translate(-29.72 -56.36)"
     fill="#2271ff"
     id="path203" />
  <path
     d="M975.79,648.3c5.74,6.63,34.4,15.48,34.4,15.48s-4.64-29.63-10.38-36.27a15.88,15.88,0,0,0-24,20.79Z"
     transform="translate(-29.72 -56.36)"
     opacity="0.25"
     id="path209" />
  <path
     d="M965.84,711.93c4.53,7.51,31.28,21.07,31.28,21.07s.44-30-4.09-37.5a15.88,15.88,0,1,0-27.19,16.43Z"
     transform="translate(-29.72 -56.36)"
     opacity="0.25"
     id="path211" />
  <path
     d="M1023.69,760.84c-8.51,2.14-37.05-7.06-37.05-7.06s20.79-21.61,29.3-23.74a15.88,15.88,0,1,1,7.75,30.8Z"
     transform="translate(-29.72 -56.36)"
     opacity="0.25"
     id="path217" />
  <path
     d="M996.06,715.43c1.1,8.71,20.06,31.94,20.06,31.94s12.56-27.23,11.45-35.94a15.88,15.88,0,0,0-31.51,4Z"
     transform="translate(-29.72 -56.36)"
     fill="#2271ff"
     id="path227" />
  <path
     d="M1061.39,750.72,1010,676.19s-1-18.45-4.32-22.76-.72-13.9-.72-13.9,3.6-5.27.48-5.75-.48-12.23-.48-12.23l-.24-18.69s2.88-18,.48-22.28a7.07,7.07,0,0,1,.24-7.67s2.88-10.31,0-12.94-2.16-18.7-1.44-31.4-5.05-19.89-5.05-21.81-19-20.61-19-22.28-12-8.63-19.21-10.55-10.81-3.35-10.57-4.31-11.29-4.79-11.29-4.79-10.09-.72-13.94-5.76-15.59-6.48-15.93-6.53c-.07-.33-.15-.67-.22-1s-.15-.72-.22-1.08c.91-1.53,1.75-3.09,2.51-4.7.23-.49.45-1,.66-1.46,4.21-.19,8.53-1.09,11.83-3.67a16.11,16.11,0,0,0,5.75-11.49,25.19,25.19,0,0,0-2.81-12.77c-2.1-4.32-5.19-8.79-4.13-13.47.47-2,1.68-3.8,2.3-5.78,1.17-3.75.09-7.87-1.73-11.35s-4.35-6.54-6.37-9.91a38.7,38.7,0,0,1-5.07-14c-.41-2.6-.57-5.34-1.88-7.63a14.21,14.21,0,0,0-4.21-4.25,42.07,42.07,0,0,0-25.82-7.83c-6.54.23-13.06,2-19.55,1.19-3.91-.48-7.64-1.87-11.42-3-8.06-2.38-17.35-3.36-24.37,1.25s-9.81,13.68-14.56,20.77c-4.2,6.28-10.36,11.54-13.56,18.18,0-.12.06-.25.1-.38a21.75,21.75,0,0,0-1.79,4.84c-1.22,5.22-.2,10.68,1.07,15.89.65,2.69,1.55,5.61,3.88,7.1s5.63,1.16,8.39,1.65c-.1.45-.22.91-.32,1.37a54.9,54.9,0,0,0,38.09,64c0,.49,0,1,0,1.46a36.33,36.33,0,0,1-.25,4.12h0s-24.15-5-30.64-1.6-19.22,6-21.14,7.9-6.72.48-11,11.75-4.8,22.76-10.33,28-8.4,8.87-8.64,12.71.72,4.79-1.45,6-5.28,6.23-4.32,8.15c0,0,1.2,4.79-2.64,7.18s-3.37,7.19-3.37,7.19-1.44,5.28-4.8,6.47-5.53,9.11-5.53,9.11L730.52,596,708.93,572.1a9.1,9.1,0,0,0-12.85-.66L685.48,581a20.94,20.94,0,0,0-10.61,6.32,27.35,27.35,0,0,0-5.49,8.18l-5.81,5.22A14.75,14.75,0,0,0,662.08,617l13.83,15.29.09.13c-5.23.66-9.85,2.34-13.38,5.45-20.65,18.21-20.9,35-17.77,42.65s29.3,37.15,29.3,37.15,15.21,19.77,37.17,30.29l0,0-.17.17c-.43.46-.86,1-1.28,1.5l-.36.46-.33.46-.39.58c-.11.15-.21.31-.31.47s-.28.45-.41.69l-.27.46c-.16.3-.33.61-.49.93l-.16.31c-.2.42-.4.85-.59,1.3-.07.16-.13.33-.2.49-.12.31-.25.63-.37,1s-.15.41-.22.62-.21.62-.31.94-.14.45-.2.67-.2.7-.29,1.06-.11.42-.17.65c-.13.55-.26,1.12-.37,1.72,0,.22-.08.45-.12.68q-.12.6-.21,1.23c-.05.29-.08.58-.12.87s-.1.79-.15,1.19l-.09.92c0,.44-.08.9-.11,1.36,0,.28,0,.56-.05.84,0,.76-.08,1.52-.09,2.32-.48,28,1.16,32.11,1.16,32.11s3.39,8.93,12.75,9.57a16.3,16.3,0,0,0,4.11-.22c12.49-2.16,41.79-7.19,52.12-5.27,6.21,1.15,17.71-.55,25.9-2.1l2.15-.41,1.5,4.76,4.75-1.3,4,2.33,2.55,1.46c4.74,16.08,24,10.6,24,10.6L843,826l46.36,1.2s10,6,16.41,7.88a15.24,15.24,0,0,0,2.33.51,105.21,105.21,0,0,0,12.92.24c3.55-.09,6.3-.24,6.3-.24s-.47-12.59-1.15-26.68c17.72-.74,33.43-1.85,42.94-3.52,24.76-4.35,35.09-26.86,38.89-38.89a113.19,113.19,0,0,1,2.43,14.93,106.74,106.74,0,0,0,3.85,12.94,43.73,43.73,0,0,0,5.28,9.58c18.26-6.23,7.21-15.57,3.36-19.65s2.65-7.43,2.65-7.43,5-3.35,4.56-6.47-.72-6.47,15.61-6.23S1061.39,750.72,1061.39,750.72Zm-253.66-153c.21,1.37,2.49,16.14,4.55,20,.43.82.6,3.73.54,7.89-9.68-.77-19.76-1.18-19.76-1.18a2.32,2.32,0,0,1,.52,1.23l-1.52-.34-2.21-.54,17.83-27.12Zm-35.32,56.2,16.75,2.66,1.41.22a55.11,55.11,0,0,0-.87,7.91c0,.25.38.55.92.9a21.57,21.57,0,0,0-.33,4c.27,1.33,8.1,4.19,17.08,6.57-.12.48-.24.94-.36,1.37h0c-7.93-4.17-20.43-6.12-21.87-9.22s-44-18-44-18-1.55-.82-4.23-2.12l11.2,2.12,3.08-.31A167.91,167.91,0,0,0,772.41,653.9Z"
     transform="translate(-29.72 -56.36)"
     fill="url(#c518dc33-18b9-48bc-b516-0f83ad79191e)"
     id="path235" />
  <path
     d="M1006.71,761.15s-6.66,40.23-40.47,46.18-146.66,4.76-146.66,4.76-64.52-9.28-87.85-63.8S693.4,672.1,713.4,671.15s127.85,36.43,134,36.9S1012.66,625.2,1006.71,761.15Z"
     transform="translate(-29.72 -56.36)"
     fill="#434175"
     id="path237" />
  <path
     d="M1006.71,761.15s-6.66,40.23-40.47,46.18-146.66,4.76-146.66,4.76-64.52-9.28-87.85-63.8S693.4,672.1,713.4,671.15s127.85,36.43,134,36.9S1012.66,625.2,1006.71,761.15Z"
     transform="translate(-29.72 -56.36)"
     opacity="0.05"
     id="path239" />
  <path
     d="M704.07,805.9s3.37,8.88,12.64,9.51a16.43,16.43,0,0,0,4.07-.22c12.38-2.14,41.43-7.14,51.66-5.24,6.16,1.15,17.55-.55,25.66-2.08,5.4-1,9.34-2,9.34-2s-9.52-31.66-10.72-32.61-42.85-25.95-42.85-25.95l-33-2.37h-.1s-6.11.41-11.18,6.57c-3.49,4.21-6.48,11.13-6.68,22.47C702.45,801.85,704.07,805.9,704.07,805.9Z"
     transform="translate(-29.72 -56.36)"
     fill="#565387"
     id="path241" />
  <path
     d="M704.07,805.9s3.37,8.88,12.64,9.51a135.54,135.54,0,0,1-9-13.08l.17-23.09c-1.47-17.29,6.62-28.36,13-34.27h-.1s-17.38,1.18-17.86,29S704.07,805.9,704.07,805.9Z"
     transform="translate(-29.72 -56.36)"
     opacity="0.05"
     id="path243" />
  <path
     d="M847.2,755.43l30.71-24,48.33-47.62s-5.22-.25-13.09-.59c-2,1.25-7.45,5.18-7.65,10-.24,5.82-13.07.4-19.73,3.73s-39.28,45.08-45,44.81-10.23-2.9-12.62,1.15c0,.09-.11.17-.17.26Z"
     transform="translate(-29.72 -56.36)"
     opacity="0.1"
     id="path245" />
  <path
     d="M709.6,751.53c1.09.53,2.19,1,3.32,1.52,23.34,10,52.14,31,54.29,34.76,1.3,2.32,18,12.46,30.89,20.06,5.4-1,9.34-2,9.34-2s-9.52-31.66-10.72-32.61-42.85-25.95-42.85-25.95l-33-2.37h-.1S714.67,745.37,709.6,751.53Z"
     transform="translate(-29.72 -56.36)"
     opacity="0.1"
     id="path247" />
  <path
     d="M644.84,683.29c3.09,7.62,29,36.91,29,36.91s16.42,21.42,39.76,31.42,52.14,31,54.28,34.76c1.38,2.45,20,13.65,33.08,21.35l2.93,1.71,6.5,3.77,3.44,2s8-6.4,15.91-12.84,15.63-12.75,15.76-13.11c.23-.71,3.32-8.81,2.61-9.28-.37-.25-2-3.55-5-7.37a33.82,33.82,0,0,0-12.13-10c-11-5-15.71-16.38-15.71-16.38s-1-.76-2.63-1.76c-2.82-1.78-7.35-4.34-10.7-4.77-5.25-.66-15-11.37-15-11.37s-6.67-4.29-9.29-9.76c-2.5-5.22-39.42-30.58-42.84-32.92l89.51,57.48,21.42,13.77,30.71-24,48.34-47.62s-6.5-.32-16-.72c-23.49-1-65.21-2.61-70.48-1.42a40.17,40.17,0,0,1-13.1.85s-11.88.54-19.74-3.61-20.25-6.09-21.68-9.16-43.57-17.85-43.57-17.85-57.37-30.47-77.85-12.37S641.74,675.68,644.84,683.29Z"
     transform="translate(-29.72 -56.36)"
     fill="#434175"
     id="path249" />
  <path
     d="M829.82,508.55l7.38,24.52,9.52,55.23,35,2.38,10.13-16.8L902,557.11s6.3-22.32,10.83-43.91c4-19.1,6.62-37.64,2.26-39.65-3.86-1.79-6.4-8.22-8-15.14-.21-.85-.4-1.72-.58-2.59a134.62,134.62,0,0,1-2.32-17.75s-73.33-3.8-63.09,26.43a48.18,48.18,0,0,1,2.76,16.08,38.23,38.23,0,0,1-.25,4.09A34.3,34.3,0,0,1,829.82,508.55Z"
     transform="translate(-29.72 -56.36)"
     fill="#ee8e9e"
     id="path251" />
  <path
     d="M814.58,504.5l2.62,41.66,5.95,35.47,6.67,16.43,5.95,89.88s57.41,6.64,71.37-.12a6.14,6.14,0,0,0,2.53-2C926.53,660.39,921,586.63,921,586.63L927.43,539l-4.29-24.72-10.35-1.1-8-.85s-1.8,2.22-4.4,5.65c-7.06,9.32-20,27.65-19.17,35.3,1.18,10.48-1.43,21.19-5.48,22.86s-7.38,4.52-8.09,1.67-1.43-3.57-.72-7.62-3.1-16.43-3.1-16.43-6.42-14.52-6-20.71-.71-13.34-2.62-15-4.52-3.34-2.38-11-9.39-22.45-9.39-22.45Z"
     transform="translate(-29.72 -56.36)"
     fill="#e3e8f4"
     id="path253" />
  <path
     d="M890.41,608.55l2.38,71.19,13.75,7.62a6.15,6.15,0,0,0,2.53-2c16.87-25.47,11.34-99.22,11.34-99.22l6.43-47.62-4.29-24.71-10.36-1.1c4-19.1,6.62-37.64,2.27-39.65-3.87-1.79-6.41-8.22-8.06-15.14h0L899,508.32s.62,4.54.84,9.22c.17,3.48.11,7-.6,8.87-1.67,4.29-.48,11.91-.48,11.91-4.29,7.56-6.43,21.57-7.48,35.1C889.87,591.41,890.41,608.55,890.41,608.55Z"
     transform="translate(-29.72 -56.36)"
     opacity="0.1"
     id="path255" />
  <path
     d="M906.63,456.82s12,1.49,15.8,6.49S936.24,469,936.24,469s11.43,3.81,11.19,4.76,3.33,2.39,10.48,4.29,19,8.81,19,10.48,18.81,20.23,18.81,22.14,5.72,9,5,21.66-1.43,28.57,1.43,31.19,0,12.86,0,12.86A7,7,0,0,0,1002,584c2.38,4.29-.47,22.15-.47,22.15l.23,18.57s-2.62,11.66.48,12.14-.48,5.71-.48,5.71-2.62,9.53.72,13.81,4.28,22.62,4.28,22.62l51,74s.72,13.57-15.47,13.33-16,3.1-15.48,6.19-4.52,6.43-4.52,6.43-6.43,3.33-2.62,7.38,14.76,13.33-3.33,19.52a43.16,43.16,0,0,1-5.24-9.52,107.72,107.72,0,0,1-3.81-12.85s-1.67-18.1-5-20.48-2.86-13.81-2.86-13.81,4.76-9.28-1.9-13.09S894.1,678.77,894.1,678.77l-2.38-71.19s-1.67-52.61,8.33-70.23c0,0-1.19-7.62.48-11.9s-.24-18.1-.24-18.1Z"
     fill="#565387"
     id="path257"
     transform="translate(-29.72 -56.36)" />
  <path
     d="M844.23,485.38s-23.93-4.93-30.36-1.6-19,6-21,7.86-6.67.48-10.95,11.67-4.77,22.61-10.24,27.85-8.33,8.81-8.57,12.62.71,4.76-1.43,6-5.24,6.19-4.29,8.1S807,601.63,807,601.63s2.39,16,4.53,20-2.38,59.76-7.14,63.57,32.14,3.46,32.14,3.46,1.66-36.55,3.09-38.46-1-41-1-41-.24-33.33,2.86-42.14S844.23,529,844.23,529s2.74-17.57,6.07-21.67S844.23,485.38,844.23,485.38Z"
     transform="translate(-29.72 -56.36)"
     opacity="0.1"
     id="path259" />
  <path
     d="M843.52,484.67s-23.94-4.93-30.37-1.6-19,5.95-20.95,7.86-6.66.47-11,11.66-4.76,22.62-10.24,27.86-8.33,8.81-8.57,12.62.72,4.76-1.42,5.95-5.24,6.19-4.29,8.09,49.52,43.81,49.52,43.81,2.38,16,4.52,20-2.38,59.75-7.14,63.56,32.14,3.46,32.14,3.46,1.67-36.55,3.1-38.45-1-41-1-41-.23-33.33,2.86-42.14,2.75-38.1,2.75-38.1,2.74-17.57,6.06-21.66S843.52,484.67,843.52,484.67Z"
     transform="translate(-29.72 -56.36)"
     fill="#565387"
     id="path261" />
  <path
     d="M841,464.5a48.18,48.18,0,0,1,2.76,16.08,54.63,54.63,0,0,0,62.65-24.76,134.62,134.62,0,0,1-2.32-17.75S830.77,434.27,841,464.5Z"
     transform="translate(-29.72 -56.36)"
     opacity="0.1"
     id="path263" />
  <path
     d="M804.82,426.88A54.52,54.52,0,1,0,806,415.55,54.53,54.53,0,0,0,804.82,426.88Z"
     transform="translate(-29.72 -56.36)"
     fill="#ee8e9e"
     id="path265" />
  <path
     d="M769.82,553.06l-13.09,4.05s1.19,4.76-2.62,7.14-3.33,7.15-3.33,7.15-1.43,5.23-4.76,6.42-5.48,9-5.48,9l-10.95,12.62s-4.05,3.33-3.33,5-4.29,2.14-4.29,2.14L724.59,649l22.62,4.29,14-1.43,11.43-4.29,10-6L787.2,630l20-30.47Z"
     transform="translate(-29.72 -56.36)"
     fill="#565387"
     id="path267" />
  <path
     d="M725.3,610s-29-41.91-50.71-19.29,8.81,59.28,15.95,58.09,41.19-3.09,41.19-3.09Z"
     transform="translate(-29.72 -56.36)"
     fill="#ee8e9e"
     id="path269" />
  <rect
     x="671.34"
     y="583.93"
     width="61.42"
     height="69.8"
     rx="12.62"
     ry="12.62"
     transform="translate(-263.46 573.17) rotate(-42.05)"
     fill="#30374e"
     id="rect271" />
  <rect
     x="671.34"
     y="583.93"
     width="61.42"
     height="69.8"
     rx="12.62"
     ry="12.62"
     transform="translate(-263.46 573.17) rotate(-42.05)"
     opacity="0.1"
     id="rect273" />
  <rect
     x="672.16"
     y="580.48"
     width="61.42"
     height="69.8"
     rx="12.62"
     ry="12.62"
     transform="translate(-260.94 572.83) rotate(-42.05)"
     fill="#30374e"
     id="rect275" />
  <circle
     cx="672.39"
     cy="560.74"
     r="13.57"
     fill="#2271ff"
     id="circle277" />
  <circle
     cx="672.39"
     cy="560.74"
     r="13.57"
     opacity="0.1"
     id="circle279" />
  <circle
     cx="673.15"
     cy="559.02"
     r="13.57"
     fill="#2271ff"
     id="circle281" />
  <path
     d="M706.5,618.77c-.24,31.43,64.76,38.09,64.76,38.09l16.6,2.64,7.44,1.18L798.4,630s-3.41-.51-7.67-1.5c-6.29-1.47-14.44-4-16.15-7.55C771.73,615,706.73,587.35,706.5,618.77Z"
     transform="translate(-29.72 -56.36)"
     fill="#ee8e9e"
     id="path283" />
  <path
     d="M806,415.55a6.47,6.47,0,0,1,4,1.78c1.84,1.95,1.94,5.41,4.33,6.61a4.92,4.92,0,0,0,2.84.33c6.33-.9,10-8,16.07-10,3.46-1.12,7.27-.39,10.65.91a7.93,7.93,0,0,1,3.53,2.27c2,2.63.61,6.5,1.55,9.69,1.31,4.42,6.59,6.18,11.16,6.76s9.72.9,12.77,4.35c2.16,2.45,2.71,6,2.27,9.21a7.29,7.29,0,0,0,0,3.41c1.26,3.57,7.44,3,9.05.22,1.18-2.05.82-3.75,3.6-4.32,1.88-.39,4.09.4,5.83,1a42.71,42.71,0,0,0,15.08,2.32A54.53,54.53,0,1,0,806,415.55Z"
     transform="translate(-29.72 -56.36)"
     opacity="0.1"
     id="path285" />
  <path
     d="M875.14,449.43a7.29,7.29,0,0,1,0-3.41c.43-3.23-.11-6.77-2.27-9.21-3-3.45-8.2-3.78-12.77-4.35s-9.85-2.33-11.16-6.75c-.94-3.19.48-7.07-1.55-9.7a7.8,7.8,0,0,0-3.52-2.26c-3.39-1.31-7.2-2-10.66-.92-6.07,2-9.74,9.12-16.07,10a4.92,4.92,0,0,1-2.84-.33c-2.39-1.2-2.49-4.66-4.33-6.6-2.89-3.06-8.38-1.09-11.92-3.36-2.31-1.49-3.2-4.38-3.84-7.05-1.26-5.18-2.27-10.61-1.06-15.79,2.07-8.86,10-14.93,15-22.49,4.71-7.05,7.35-16,14.43-20.64s16.17-3.61,24.15-1.24c3.74,1.11,7.44,2.49,11.31,3,6.44.79,12.9-1,19.38-1.18a41.62,41.62,0,0,1,25.59,7.77,14.16,14.16,0,0,1,4.18,4.23c1.29,2.28,1.46,5,1.85,7.58a38.75,38.75,0,0,0,5,13.93c2,3.35,4.51,6.39,6.32,9.85s2.87,7.55,1.71,11.27c-.61,2-1.82,3.73-2.27,5.74-1.06,4.65,2,9.09,4.09,13.38a25.1,25.1,0,0,1,2.78,12.69,16,16,0,0,1-5.7,11.41c-3.37,2.64-7.8,3.52-12.07,3.66a42.78,42.78,0,0,1-15.38-2.31c-1.75-.6-4-1.39-5.83-1-2.78.57-2.42,2.27-3.6,4.32C882.57,452.47,876.4,453,875.14,449.43Z"
     transform="translate(-29.72 -56.36)"
     fill="#434175"
     id="path287" />
  <path
     d="M845.77,756.86l30.71-24,48.34-47.62s-6.5-.32-16-.72c-1.73,1.76-3.27,4-3.37,6.5-.24,5.82-13.07.41-19.73,3.74s-39.28,45.07-45,44.8-10.23-2.9-12.62,1.15a2.46,2.46,0,0,1-.17.27,6.77,6.77,0,0,1-3.63,2.15Z"
     transform="translate(-29.72 -56.36)"
     opacity="0.1"
     id="path289" />
  <path
     d="M783.87,755.19l15.43,49.26,2.42,7.74,7.35-2,16.2-4.45,72.16-19.82s13.56-.18,26-6.93c13.75-7.48,29.26-11.24,44.84-9.78,9.54.89,20.15-3.22,29-19.48,0,0,20-59-30.48-76s-52.88,9-52.88,9-.26.14-.68.42c-2,1.25-7.45,5.18-7.65,10-.24,5.82-13.07.4-19.73,3.73s-39.28,45.08-45,44.81-10.23-2.9-12.62,1.15c0,.09-.11.17-.17.26-1.76,2.43-7.06,3-10.57,3.09-1.91.06-3.3,0-3.3,0l-.45.14L810,747.37Z"
     transform="translate(-29.72 -56.36)"
     fill="#434175"
     id="path291" />
  <path
     d="M787.86,659.5l7.44,1.18L798.4,630s-3.41-.51-7.67-1.5C791.86,632.75,789.3,649.32,787.86,659.5Z"
     transform="translate(-29.72 -56.36)"
     opacity="0.1"
     id="path293" />
  <path
     d="M982.54,516s22.14-6.43,16.66,56.43S952.78,675,952.78,675s-47.14,20.71-68.33,17.38-36.66-4-36.66-4a53.79,53.79,0,0,0-21.43-5.71c-11.91-.48-36.9-7.86-37.38-10.24s6.19-37.38,3.33-40c0,0,33.33,1.37,36.67,3.78s8.09.68,11.66,0,14.53-10.21,36.19-1.87c0,0,7.38.71,10.24-1.19s7.44-.48,7.44-.48S899,631,899.69,630s6.42,0,6.42,0a2.54,2.54,0,0,0,3.58-1.67,15.56,15.56,0,0,1,3.33-5.23s6.43-36.19,18.57-49.76c0,0,3.57-3.1,2.62-6.91S954,508.37,982.54,516Z"
     transform="translate(-29.72 -56.36)"
     opacity="0.1"
     id="path295" />
  <path
     d="M982,511.16s22.14-6.43,16.67,56.43S952.19,670.2,952.19,670.2s-47.14,20.71-68.33,17.38-36.66-4.05-36.66-4.05a53.72,53.72,0,0,0-21.43-5.71c-11.9-.48-36.9-7.86-37.38-10.24s6.19-37.38,3.34-40c0,0,33.33,1.37,36.66,3.78s8.1.68,11.67,0,14.52-10.2,36.19-1.87c0,0,7.38.71,10.23-1.19s7.45-.48,7.45-.48,4.46-1.67,5.17-2.62,6.43,0,6.43,0a2.53,2.53,0,0,0,3.57-1.66,15.54,15.54,0,0,1,3.33-5.24s6.43-36.19,18.57-49.76c0,0,3.57-3.1,2.62-6.9S953.38,503.54,982,511.16Z"
     transform="translate(-29.72 -56.36)"
     fill="#565387"
     id="path297" />
  <path
     d="M810,747.37l31.44,38c.12-.11.2-.19.2-.22.24-.72,3.33-8.81,2.62-9.29s-6.19-12.38-17.14-17.38c-6.69-3-11.07-8.49-13.46-12.25Z"
     transform="translate(-29.72 -56.36)"
     opacity="0.1"
     id="path299" />
  <path
     d="M810.43,813.21l3.44,2s8-6.4,15.91-12.84,15.63-12.75,15.76-13.11c.23-.71,3.32-8.81,2.61-9.28-.37-.25-2-3.55-5-7.37-21.32-6-7.75,8.83-5.94,9.51,0,0-26-6-27.38,22.31A33.36,33.36,0,0,0,810.43,813.21Z"
     transform="translate(-29.72 -56.36)"
     opacity="0.1"
     id="path301" />
  <path
     d="M836.72,825.19l4.53,2.62,46,1.19s9.86,6,16.26,7.82a13.93,13.93,0,0,0,2.31.51,103.27,103.27,0,0,0,12.8.24c3.52-.09,6.25-.24,6.25-.24s-2.18-58-3.82-64c-.78-2.92-4.63-2.28-8.43-.82a55.19,55.19,0,0,0-8.23,4.17s-19.52,1.89-22.62,3.57-11.9-1-17.38,0-15.23-6.45-15.23-6.45c-26.67-8.8-11.67,7.62-9.77,8.34,0,0-25.94-6-27.37,22.31S836.72,825.19,836.72,825.19Z"
     transform="translate(-29.72 -56.36)"
     fill="#565387"
     id="path303" />
  <path
     d="M903.15,802.81c.5,12,9.85,26.89,15.42,34.76,3.52-.09,6.25-.24,6.25-.24s-2.18-58-3.82-64c-.78-2.92-4.63-2.28-8.43-.82C908,781.11,902.75,793.14,903.15,802.81Z"
     transform="translate(-29.72 -56.36)"
     fill="#565387"
     id="path305" />
  <path
     d="M903.15,802.81c.5,12,9.85,26.89,15.42,34.76,3.52-.09,6.25-.24,6.25-.24s-2.18-58-3.82-64c-.78-2.92-4.63-2.28-8.43-.82C908,781.11,902.75,793.14,903.15,802.81Z"
     transform="translate(-29.72 -56.36)"
     opacity="0.1"
     id="path307" />
  <path
     d="M895.29,804.4c3.16,11.58,3.13,24.57,8.17,32.42a13.93,13.93,0,0,0,2.31.51,103.27,103.27,0,0,0,12.8.24c3.52-.09,6.25-.24,6.25-.24s-2.18-58-3.82-64c-.78-2.92-4.63-2.28-8.43-.82a55.19,55.19,0,0,0-8.23,4.17S891.25,789.58,895.29,804.4Z"
     transform="translate(-29.72 -56.36)"
     opacity="0.05"
     id="path309" />
  <path
     d="M736.77,686.94s22.82,7.41,42.16,33.73Z"
     transform="translate(-29.72 -56.36)"
     opacity="0.1"
     id="path311" />
  <g
     opacity="0.1"
     id="g317">
    <path
       d="M922.23,401.26a4.67,4.67,0,0,1-.14.5,16.15,16.15,0,0,1-.79,2A14.93,14.93,0,0,1,922.23,401.26Z"
       transform="translate(-29.72 -56.36)"
       id="path313" />
    <path
       d="M793.11,389.71a21.46,21.46,0,0,1,1.77-4.81c-.12.41-.25.82-.35,1.24-1.21,5.18-.2,10.61,1.06,15.79.65,2.67,1.53,5.56,3.84,7.05,3.55,2.27,9,.29,11.92,3.35,1.84,1.95,1.94,5.41,4.34,6.61a4.91,4.91,0,0,0,2.84.33c6.32-.9,10-8,16.07-10,3.46-1.12,7.26-.39,10.65.92a7.8,7.8,0,0,1,3.52,2.26c2,2.63.61,6.51,1.55,9.69,1.31,4.42,6.59,6.18,11.16,6.75s9.72.9,12.77,4.36c2.16,2.44,2.71,6,2.27,9.21a7.42,7.42,0,0,0,0,3.41c1.26,3.57,7.44,3,9,.22,1.18-2.05.83-3.75,3.61-4.32,1.87-.39,4.08.4,5.82,1a42.78,42.78,0,0,0,15.38,2.31c4.27-.15,8.71-1,12.07-3.66a14,14,0,0,0,3.7-4.5A15.14,15.14,0,0,1,921,445c-3.36,2.64-7.79,3.52-12.07,3.66a42.69,42.69,0,0,1-15.37-2.31c-1.75-.6-4-1.39-5.83-1-2.78.57-2.43,2.27-3.6,4.32-1.62,2.82-7.79,3.35-9.06-.22a7.42,7.42,0,0,1,0-3.41c.44-3.23-.1-6.77-2.26-9.21-3.06-3.45-8.21-3.78-12.78-4.35s-9.85-2.33-11.15-6.75c-.95-3.19.48-7.07-1.55-9.7a7.88,7.88,0,0,0-3.53-2.26c-3.39-1.31-7.19-2-10.65-.92-6.08,2-9.75,9.12-16.07,10a4.91,4.91,0,0,1-2.84-.33c-2.4-1.2-2.5-4.66-4.34-6.6-2.89-3.06-8.37-1.09-11.91-3.36-2.32-1.49-3.2-4.38-3.85-7.05C792.9,400.32,791.89,394.89,793.11,389.71Z"
       transform="translate(-29.72 -56.36)"
       id="path315" />
  </g>
  <path
     d="M925.92,580.26c-4.36,5.89-9.34,11.34-13.2,17.57s-6.59,13.5-5.78,20.78c4-4.1,5.82-9.76,8.34-14.9,4.26-8.7,10.64-16.08,16-24.08,1-1.53,7.61-10.35,4.28-10.77C932.82,568.51,927.41,578.25,925.92,580.26Z"
     transform="translate(-29.72 -56.36)"
     opacity="0.1"
     id="path319" />
  <path
     style="fill:none;stroke:#000000;stroke-width:2.29621;stroke-linecap:round;stroke-linejoin:miter;stroke-miterlimit:4;stroke-dasharray:none;stroke-opacity:1"
     d="m 304.56808,263.90138 283.06046,-1.01293 -1.33519,-1.01293 v 0 l 1.33519,1.01293"
     id="path1173"
     sodipodi:nodetypes="ccccc" />
  <text
     xml:space="preserve"
     style="font-style:normal;font-weight:normal;font-size:64px;line-height:1.25;font-family:sans-serif;fill:#0000ff;fill-opacity:1;stroke:none"
     x="183.90323"
     y="245.79793"
     id="text328"><tspan
       sodipodi:role="line"
       x="183.90323"
       y="245.79793"
       id="tspan330"
       style="font-style:normal;font-variant:normal;font-weight:normal;font-stretch:normal;font-size:64px;font-family:'Cooper Black';-inkscape-font-specification:'Cooper Black, ';fill:#000000;fill-opacity:1"><tspan
   style="fill:#333333"
   id="tspan69">CORPORACIÓN</tspan> </tspan><tspan
       sodipodi:role="line"
       x="183.90323"
       y="326.46149"
       style="font-style:normal;font-variant:normal;font-weight:normal;font-stretch:normal;font-size:64px;font-family:'Cooper Black';-inkscape-font-specification:'Cooper Black, ';fill:#ffff00"
       id="tspan344">     SERVIPAC</tspan></text>
</svg>
